<mxfile host="app.diagrams.net" agent="Mozilla/5.0 (Windows NT 10.0; Win64; x64; rv:131.0) Gecko/20100101 Firefox/131.0" version="24.7.14">
  <diagram name="Pagina-1" id="lsayczZvZa8eJ_dShTqI">
    <mxGraphModel dx="928" dy="495" grid="1" gridSize="10" guides="1" tooltips="1" connect="1" arrows="1" fold="1" page="1" pageScale="1" pageWidth="827" pageHeight="1169" math="0" shadow="0">
      <root>
        <mxCell id="0" />
        <mxCell id="1" parent="0" />
        <mxCell id="8WDXBejr4rBpoqVu6X6f-9" style="edgeStyle=orthogonalEdgeStyle;rounded=0;orthogonalLoop=1;jettySize=auto;html=1;entryX=0.5;entryY=0;entryDx=0;entryDy=0;" edge="1" parent="1" source="8WDXBejr4rBpoqVu6X6f-1" target="8WDXBejr4rBpoqVu6X6f-2">
          <mxGeometry relative="1" as="geometry" />
        </mxCell>
        <mxCell id="8WDXBejr4rBpoqVu6X6f-1" value="MAC" style="whiteSpace=wrap;html=1;aspect=fixed;" vertex="1" parent="1">
          <mxGeometry x="80" y="200" width="80" height="80" as="geometry" />
        </mxCell>
        <mxCell id="8WDXBejr4rBpoqVu6X6f-10" style="edgeStyle=orthogonalEdgeStyle;rounded=0;orthogonalLoop=1;jettySize=auto;html=1;entryX=0.25;entryY=1;entryDx=0;entryDy=0;" edge="1" parent="1" source="8WDXBejr4rBpoqVu6X6f-2" target="8WDXBejr4rBpoqVu6X6f-6">
          <mxGeometry relative="1" as="geometry">
            <Array as="points">
              <mxPoint x="120" y="380" />
              <mxPoint x="180" y="380" />
              <mxPoint x="180" y="80" />
              <mxPoint x="150" y="80" />
            </Array>
          </mxGeometry>
        </mxCell>
        <mxCell id="8WDXBejr4rBpoqVu6X6f-2" value="REG" style="rounded=0;whiteSpace=wrap;html=1;" vertex="1" parent="1">
          <mxGeometry x="80" y="320" width="80" height="40" as="geometry" />
        </mxCell>
        <mxCell id="8WDXBejr4rBpoqVu6X6f-3" value="" style="endArrow=classic;html=1;rounded=0;entryX=0.25;entryY=0;entryDx=0;entryDy=0;" edge="1" parent="1" target="8WDXBejr4rBpoqVu6X6f-1">
          <mxGeometry width="50" height="50" relative="1" as="geometry">
            <mxPoint x="100" y="160" as="sourcePoint" />
            <mxPoint x="210" y="210" as="targetPoint" />
          </mxGeometry>
        </mxCell>
        <mxCell id="8WDXBejr4rBpoqVu6X6f-11" value="&lt;font face=&quot;Tahoma&quot;&gt;x&lt;sub&gt;i&lt;/sub&gt; (t)&lt;/font&gt;" style="edgeLabel;html=1;align=center;verticalAlign=middle;resizable=0;points=[];" vertex="1" connectable="0" parent="8WDXBejr4rBpoqVu6X6f-3">
          <mxGeometry x="-0.6238" y="1" relative="1" as="geometry">
            <mxPoint x="-1" y="-18" as="offset" />
          </mxGeometry>
        </mxCell>
        <mxCell id="8WDXBejr4rBpoqVu6X6f-4" value="" style="endArrow=classic;html=1;rounded=0;entryX=0.5;entryY=0;entryDx=0;entryDy=0;" edge="1" parent="1" target="8WDXBejr4rBpoqVu6X6f-1">
          <mxGeometry width="50" height="50" relative="1" as="geometry">
            <mxPoint x="120" y="160" as="sourcePoint" />
            <mxPoint x="210" y="210" as="targetPoint" />
          </mxGeometry>
        </mxCell>
        <mxCell id="8WDXBejr4rBpoqVu6X6f-12" value="&lt;font face=&quot;Tahoma&quot;&gt;w&lt;/font&gt;" style="edgeLabel;html=1;align=center;verticalAlign=middle;resizable=0;points=[];" vertex="1" connectable="0" parent="8WDXBejr4rBpoqVu6X6f-4">
          <mxGeometry x="-0.719" y="2" relative="1" as="geometry">
            <mxPoint x="-2" y="-16" as="offset" />
          </mxGeometry>
        </mxCell>
        <mxCell id="8WDXBejr4rBpoqVu6X6f-5" value="" style="endArrow=classic;html=1;rounded=0;entryX=0.75;entryY=0;entryDx=0;entryDy=0;" edge="1" parent="1" target="8WDXBejr4rBpoqVu6X6f-1">
          <mxGeometry width="50" height="50" relative="1" as="geometry">
            <mxPoint x="140" y="100" as="sourcePoint" />
            <mxPoint x="210" y="210" as="targetPoint" />
          </mxGeometry>
        </mxCell>
        <mxCell id="8WDXBejr4rBpoqVu6X6f-6" value="" style="shape=trapezoid;perimeter=trapezoidPerimeter;whiteSpace=wrap;html=1;fixedSize=1;rotation=-180;size=10;" vertex="1" parent="1">
          <mxGeometry x="120" y="100" width="40" height="40" as="geometry" />
        </mxCell>
        <mxCell id="8WDXBejr4rBpoqVu6X6f-8" value="" style="endArrow=classic;html=1;rounded=0;entryX=0.75;entryY=1;entryDx=0;entryDy=0;" edge="1" parent="1" target="8WDXBejr4rBpoqVu6X6f-6">
          <mxGeometry width="50" height="50" relative="1" as="geometry">
            <mxPoint x="130" y="60" as="sourcePoint" />
            <mxPoint x="150" y="50" as="targetPoint" />
          </mxGeometry>
        </mxCell>
        <mxCell id="8WDXBejr4rBpoqVu6X6f-13" value="&lt;font face=&quot;Tahoma&quot;&gt;b&lt;/font&gt;" style="text;html=1;align=center;verticalAlign=middle;whiteSpace=wrap;rounded=0;" vertex="1" parent="1">
          <mxGeometry x="100" y="30" width="60" height="30" as="geometry" />
        </mxCell>
      </root>
    </mxGraphModel>
  </diagram>
</mxfile>
